<svg width="179" height="70" viewBox="0 0 179 70" fill="none" xmlns="http://www.w3.org/2000/svg">
<path d="M34.5954 18.5287C28.2964 14.299 24.1544 11.8731 22.2113 11.0639C17.5294 9.11411 17.3389 12.2454 17.3955 13.6255C17.7531 22.3541 22.1464 42.1845 23.6771 44.169C24.0523 44.6552 25.4688 44.7136 25.9657 44.7268C30.853 44.8591 36.7077 45.7755 41.401 45.4811C41.8258 45.4545 48.5819 45.0883 55.0171 43.8229C57.4885 43.3368 58.5227 41.938 57.4761 40.0769C57.3622 39.8745 57.0088 39.2391 56.5928 38.695C55.4164 37.1569 52.9609 33.8402 47.7687 28.8791C47.7167 28.8281 47.6641 28.7782 47.6116 28.7284C45.7765 26.9844 43.6545 25.1361 41.2169 23.2617C38.8318 21.426 36.6136 19.8602 34.5954 18.5287Z" fill="url(#paint0_linear_669_2860)"/>
<path d="M34.5954 18.5287C28.2964 14.299 24.1544 11.8731 22.2113 11.0639C17.5294 9.11411 17.3389 12.2454 17.3955 13.6254C17.7531 22.3541 22.1464 42.1845 23.6771 44.169C24.0523 44.6552 25.4688 44.7136 25.9657 44.7268C30.853 44.8591 36.7077 45.7755 41.401 45.4811C41.8258 45.4545 48.5819 45.0883 55.0171 43.8229C57.4885 43.3368 58.5227 41.938 57.4761 40.0769C57.3622 39.8745 57.0088 39.2391 56.5928 38.695C55.4165 37.1569 52.9609 33.8402 47.7687 28.8791C47.7167 28.8281 47.6641 28.7782 47.6116 28.7284C45.7765 26.9844 43.6545 25.1361 41.2169 23.2617C38.8318 21.426 36.6136 19.8602 34.5954 18.5287Z" fill="url(#paint1_linear_669_2860)"/>
<path d="M33.953 49.3678C27.796 51.3951 25.3133 49.0679 25.1455 49.2186C25.1019 49.2578 25.2105 49.5334 25.2242 49.573C25.5523 50.5193 27.7546 56.362 28.7874 57.7034C30.1867 59.3355 31.7254 58.6055 33.7281 56.1633C36.0385 53.346 38.8441 48.8594 40.634 45.5119C40.6414 45.4979 40.6232 45.4853 40.6118 45.4963C38.1802 47.8474 35.1765 48.9649 33.953 49.3678Z" fill="url(#paint2_linear_669_2860)"/>
<path d="M47.4818 13.8665C47.4794 13.868 41.7888 15.3727 34.2588 18.9809C34.1699 19.0233 34.0816 19.0671 33.9927 19.1096C30.8275 20.6369 27.2614 22.5595 23.4897 24.945C21.9599 25.9125 20.5622 26.8327 19.2901 27.7012C19.2166 27.7511 19.1444 27.8003 19.0729 27.8506C11.9657 32.7231 8.80337 35.9542 7.91604 36.9335C7.66598 37.2095 7.45638 37.5202 7.32079 37.8637C6.771 39.2563 7.30646 40.2688 8.92216 41.0087C10.3602 41.6673 15.5421 43.4117 22.8233 44.4214C34.6259 46.0581 40.2408 45.5413 40.6142 45.5347C40.6262 45.5346 40.6283 45.5341 40.6303 45.5342C43.7918 39.1993 46.1692 32.3658 47.0133 29.8128C47.0246 29.7763 47.0373 29.739 47.0487 29.7024C48.4073 25.5686 49.5161 21.239 50.46 16.7859C50.4826 16.675 50.5057 16.5674 50.5241 16.4608C50.5249 16.4568 50.5258 16.4528 50.5255 16.4496C50.9392 14.2073 50.4852 12.914 47.4818 13.8665Z" fill="url(#paint3_linear_669_2860)"/>
<path d="M47.4818 13.8665C47.4794 13.868 41.7888 15.3727 34.2588 18.9809C34.1699 19.0233 34.0816 19.0671 33.9927 19.1096C30.8275 20.6369 27.2614 22.5595 23.4897 24.945C21.9599 25.9125 20.5622 26.8327 19.2901 27.7012C19.2166 27.7511 19.1444 27.8003 19.0729 27.8506C11.9657 32.7231 8.80337 35.9542 7.91604 36.9335C7.66598 37.2095 7.45638 37.5202 7.32079 37.8637C6.771 39.2563 7.30646 40.2688 8.92216 41.0087C10.3602 41.6673 15.5421 43.4117 22.8233 44.4214C34.6259 46.0581 40.2408 45.5413 40.6142 45.5347C40.6262 45.5346 40.6283 45.5341 40.6303 45.5342C43.7918 39.1993 46.1692 32.3658 47.0133 29.8128C47.0246 29.7763 47.0373 29.739 47.0487 29.7024C48.4073 25.5686 49.5161 21.239 50.46 16.7859C50.4826 16.675 50.5057 16.5674 50.5241 16.4608C50.5249 16.4568 50.5258 16.4528 50.5255 16.4496C50.9392 14.2073 50.4852 12.914 47.4818 13.8665Z" fill="url(#paint4_linear_669_2860)"/>
<path d="M11.9182 35.8626C16.4496 31.0857 30.2809 20.6811 42.3417 16.4605C46.201 15.1099 48.0065 14.7451 48.3022 14.6606C52.3934 13.4918 33.3495 23.0825 21.7702 39.5103C21.7702 39.5103 16.4324 39.9385 14.8766 39.5188C14.6729 39.4639 14.4691 39.4073 14.2623 39.365C11.961 38.894 11.0423 36.786 11.9182 35.8626Z" fill="url(#paint5_linear_669_2860)"/>
<path d="M73.3182 33.9C72.2443 33.9 71.2903 33.7125 70.4563 33.3373C69.6338 32.9622 68.994 32.4165 68.537 31.7003C68.0801 30.9841 67.8516 30.1428 67.8516 29.1765C67.8516 28.6877 67.9087 28.1931 68.0229 27.6929C68.4342 25.7262 69.3253 24.1972 70.6963 23.1058C72.0786 22.0144 73.838 21.4688 75.9743 21.4688C76.854 21.4688 77.6138 21.5426 78.2535 21.6904C78.9047 21.8382 79.4817 22.077 79.9843 22.4066L79.1618 26.2264C78.7391 25.8626 78.2364 25.6011 77.6537 25.442C77.0711 25.2828 76.3685 25.2033 75.5459 25.2033C74.6548 25.2033 73.9065 25.4193 73.301 25.8513C72.707 26.2719 72.3242 26.8858 72.1529 27.6929C72.0843 27.9771 72.05 28.2443 72.05 28.4944C72.05 29.0628 72.2443 29.4891 72.6327 29.7733C73.0326 30.0462 73.6495 30.1826 74.4835 30.1826C75.2832 30.1826 76.02 30.0973 76.6941 29.9268C77.3681 29.7449 78.0308 29.4721 78.6819 29.1083L77.8765 32.911C76.5627 33.5704 75.0433 33.9 73.3182 33.9Z" fill="black"/>
<path d="M83.3418 21.7245H87.4032L86.5463 25.7148H89.8366L90.6934 21.7245H94.7548L92.2186 33.6443H88.1572L89.0483 29.4664H85.7581L84.8669 33.6443H80.8056L83.3418 21.7245Z" fill="black"/>
<path d="M101.615 21.7245H105.454L107.716 33.6443H103.637L103.295 31.5639H99.7301L98.5305 33.6443H94.2806L101.615 21.7245ZM103.037 28.5967L102.746 25.8513L101.255 28.5967H103.037Z" fill="black"/>
<path d="M112.145 21.7245H115.641L117.32 28.034L121.707 21.7245H125.374L122.838 33.6443H119.085L120.028 29.2277L116.875 33.6443H115.572L114.304 29.2277L113.361 33.6443H109.609L112.145 21.7245Z" fill="black"/>
<path d="M128.455 21.7245H134.213C135.39 21.7245 136.355 22.0144 137.109 22.5942C137.863 23.1626 138.24 23.9755 138.24 25.0327C138.24 25.3851 138.2 25.7262 138.121 26.0559C137.812 27.511 137.184 28.5967 136.235 29.3129C135.299 30.0291 134.008 30.3872 132.363 30.3872H130.666L129.981 33.6443H125.919L128.455 21.7245ZM132.191 27.3689C132.762 27.3689 133.185 27.278 133.459 27.0961C133.734 26.9028 133.922 26.5561 134.025 26.0559C134.059 25.8967 134.076 25.7546 134.076 25.6296C134.076 25.3113 133.962 25.0839 133.734 24.9475C133.516 24.811 133.185 24.7428 132.74 24.7428H131.866L131.317 27.3689H132.191Z" fill="black"/>
<path d="M141.277 21.7245H145.339L142.802 33.6443H138.741L141.277 21.7245Z" fill="black"/>
<path d="M151.467 33.9C150.485 33.9 149.588 33.7011 148.777 33.3032C147.966 32.8939 147.32 32.3198 146.84 31.5809C146.372 30.8306 146.138 29.9723 146.138 29.006C146.138 28.5853 146.189 28.1477 146.292 27.6929C146.555 26.4538 147.052 25.3681 147.783 24.4359C148.514 23.4923 149.428 22.7647 150.525 22.2532C151.622 21.7302 152.821 21.4688 154.123 21.4688C155.152 21.4688 156.066 21.6677 156.865 22.0656C157.677 22.4635 158.311 23.0319 158.768 23.7708C159.225 24.5098 159.453 25.3624 159.453 26.3287C159.453 26.7607 159.402 27.2155 159.299 27.6929C159.036 28.9207 158.533 30.0064 157.791 30.95C157.06 31.8822 156.146 32.6097 155.049 33.1327C153.964 33.6443 152.77 33.9 151.467 33.9ZM152.29 30.0973C152.975 30.0973 153.587 29.8813 154.123 29.4493C154.66 29.0173 155.009 28.4319 155.169 27.6929C155.226 27.386 155.255 27.1302 155.255 26.9256C155.255 25.8342 154.609 25.2885 153.318 25.2885C152.621 25.2885 151.999 25.5045 151.45 25.9365C150.913 26.3685 150.571 26.954 150.422 27.6929C150.353 27.9999 150.319 28.2841 150.319 28.5456C150.319 29.0571 150.473 29.4437 150.782 29.7051C151.102 29.9666 151.604 30.0973 152.29 30.0973Z" fill="black"/>
<path d="M162.796 21.7245H166.377L168.759 27.2666L169.942 21.7245H173.832L171.296 33.6443H167.714L165.332 28.0851L164.15 33.6443H160.26L162.796 21.7245Z" fill="black"/>
<path d="M67.9998 45.5469L69.297 39.061H72.0396C72.8797 39.061 73.5283 39.2432 73.9854 39.6077C74.4425 39.9721 74.671 40.4848 74.671 41.1457C74.671 41.6893 74.5413 42.1649 74.2819 42.5726C74.0224 42.9803 73.6518 43.2953 73.17 43.5177C72.6882 43.7401 72.1199 43.8513 71.4651 43.8513H69.3618L70.3347 43.0359L69.8344 45.5469H67.9998ZM70.2884 43.249L69.6491 42.4059H71.5485C71.95 42.4059 72.262 42.3101 72.4843 42.1186C72.7067 41.9271 72.8179 41.6553 72.8179 41.3033C72.8179 41.0315 72.7283 40.8307 72.5492 40.701C72.3701 40.5713 72.1199 40.5064 71.7987 40.5064H70.0382L71.0111 39.6355L70.2884 43.249ZM80.725 45.5469L84.8852 39.061H86.692L88.2579 45.5469H86.4325L85.2744 39.9319H85.9971L82.6615 45.5469H80.725ZM82.541 44.2868L83.2823 42.934H86.4511L86.6549 44.2868H82.541ZM95.8754 45.5469L97.1726 39.061H99.943C100.777 39.061 101.419 39.2432 101.87 39.6077C102.327 39.9721 102.556 40.4786 102.556 41.1272C102.556 41.6708 102.423 42.1464 102.157 42.5541C101.898 42.9556 101.527 43.2675 101.046 43.4899C100.564 43.7123 99.9955 43.8235 99.3407 43.8235H97.2374L98.2103 43.0359L97.71 45.5469H95.8754ZM99.943 45.5469L98.618 43.1842H100.517L101.861 45.5469H99.943ZM98.164 43.249L97.5246 42.4059H99.4241C99.8318 42.4059 100.147 42.3101 100.369 42.1186C100.592 41.9271 100.703 41.6553 100.703 41.3033C100.703 41.0315 100.613 40.8307 100.434 40.701C100.255 40.5713 100.005 40.5064 99.6835 40.5064H97.9138L98.896 39.6355L98.164 43.249ZM111.103 45.5469L112.113 40.5157H110.121L110.417 39.061H116.227L115.93 40.5157H113.948L112.938 45.5469H111.103ZM122.701 45.5469L123.999 39.061H125.509L128.131 43.3973L127.501 43.3787L128.363 39.061H130.16L128.863 45.5469H127.353L124.74 41.2106L125.361 41.2291L124.499 45.5469H122.701ZM139.728 41.572H142.74L142.471 42.9433H139.46L139.728 41.572ZM139.348 44.1292H142.749L142.452 45.5469H137.254L138.552 39.061H143.629L143.342 40.4786H140.071L139.348 44.1292ZM150.568 45.5469L151.865 39.061H154.635C155.469 39.061 156.112 39.2432 156.563 39.6077C157.02 39.9721 157.248 40.4786 157.248 41.1272C157.248 41.6708 157.116 42.1464 156.85 42.5541C156.59 42.9556 156.22 43.2675 155.738 43.4899C155.256 43.7123 154.688 43.8235 154.033 43.8235H151.93L152.903 43.0359L152.402 45.5469H150.568ZM154.635 45.5469L153.31 43.1842H155.21L156.553 45.5469H154.635ZM152.856 43.249L152.217 42.4059H154.117C154.524 42.4059 154.839 42.3101 155.062 42.1186C155.284 41.9271 155.395 41.6553 155.395 41.3033C155.395 41.0315 155.306 40.8307 155.127 40.701C154.947 40.5713 154.697 40.5064 154.376 40.5064H152.606L153.588 39.6355L152.856 43.249ZM166.933 45.6766C166.562 45.6766 166.207 45.6457 165.867 45.5839C165.528 45.5283 165.219 45.448 164.941 45.343C164.663 45.2318 164.425 45.1114 164.227 44.9817L164.95 43.6104C165.173 43.7463 165.401 43.8636 165.636 43.9625C165.877 44.0551 166.121 44.1262 166.368 44.1756C166.615 44.225 166.862 44.2497 167.109 44.2497C167.344 44.2497 167.545 44.2281 167.711 44.1848C167.878 44.1354 168.005 44.0675 168.091 43.981C168.178 43.8945 168.221 43.7926 168.221 43.6752C168.221 43.5455 168.162 43.4436 168.045 43.3695C167.934 43.2892 167.785 43.2212 167.6 43.1656C167.415 43.11 167.208 43.0544 166.979 42.9988C166.757 42.9371 166.531 42.866 166.303 42.7857C166.081 42.6993 165.877 42.5943 165.691 42.4707C165.506 42.341 165.355 42.1773 165.237 41.9796C165.126 41.782 165.071 41.538 165.071 41.2477C165.071 40.7782 165.197 40.3705 165.451 40.0246C165.704 39.6787 166.062 39.41 166.525 39.2185C166.995 39.027 167.548 38.9313 168.184 38.9313C168.647 38.9313 169.08 38.9807 169.481 39.0795C169.883 39.1722 170.228 39.3081 170.519 39.4872L169.852 40.8492C169.598 40.6886 169.317 40.5682 169.008 40.4879C168.706 40.4014 168.394 40.3582 168.073 40.3582C167.826 40.3582 167.612 40.386 167.433 40.4416C167.26 40.4971 167.128 40.5744 167.035 40.6732C166.948 40.7658 166.905 40.8709 166.905 40.9882C166.905 41.1118 166.961 41.2137 167.072 41.294C167.183 41.3743 167.331 41.4422 167.517 41.4978C167.708 41.5534 167.915 41.6121 168.138 41.6739C168.366 41.7295 168.592 41.7974 168.814 41.8777C169.036 41.9518 169.243 42.0538 169.435 42.1835C169.626 42.307 169.778 42.4645 169.889 42.656C170 42.8475 170.055 43.0853 170.055 43.3695C170.055 43.8327 169.929 44.2373 169.676 44.5833C169.422 44.9292 169.061 45.1979 168.592 45.3894C168.122 45.5808 167.569 45.6766 166.933 45.6766Z" fill="black"/>
<defs>
<linearGradient id="paint0_linear_669_2860" x1="47.7496" y1="37.8139" x2="53.0511" y2="31.1869" gradientUnits="userSpaceOnUse">
<stop stop-color="#FF00BD"/>
<stop offset="0.197917" stop-color="#DB07D7"/>
<stop offset="0.697917" stop-color="#007EFF"/>
</linearGradient>
<linearGradient id="paint1_linear_669_2860" x1="50.4004" y1="45.1035" x2="62.3289" y2="39.1393" gradientUnits="userSpaceOnUse">
<stop stop-color="#7109FF" stop-opacity="0"/>
<stop offset="1" stop-color="#7109FF"/>
</linearGradient>
<linearGradient id="paint2_linear_669_2860" x1="32.8855" y1="58.5781" x2="32.8855" y2="45.4921" gradientUnits="userSpaceOnUse">
<stop stop-color="#0148FF"/>
<stop offset="1" stop-color="#2261FF"/>
</linearGradient>
<linearGradient id="paint3_linear_669_2860" x1="51.0636" y1="42.4684" x2="50.6218" y2="13.5308" gradientUnits="userSpaceOnUse">
<stop stop-color="#0879FE"/>
<stop offset="1" stop-color="#00FFCA"/>
</linearGradient>
<linearGradient id="paint4_linear_669_2860" x1="7.3257" y1="39.8176" x2="25.2185" y2="33.1907" gradientUnits="userSpaceOnUse">
<stop stop-color="#00ABFF"/>
<stop offset="1" stop-color="#00ABFF" stop-opacity="0"/>
</linearGradient>
<linearGradient id="paint5_linear_669_2860" x1="30.2297" y1="39.7031" x2="30.2297" y2="14.5647" gradientUnits="userSpaceOnUse">
<stop stop-color="#00FFFE" stop-opacity="0"/>
<stop offset="1" stop-color="#00FFFE"/>
</linearGradient>
</defs>
</svg>
